<svg width="94" height="94" viewBox="0 0 94 94" fill="none" xmlns="http://www.w3.org/2000/svg">
<circle cx="47" cy="47" r="46" stroke="black" stroke-width="2"/>
<rect x="27" y="44" width="23" height="20" fill="#E91D76"/>
<path d="M44.4792 80.902C44.2286 80.9096 43.8783 80.8499 43.6318 80.7592C43.5347 80.7256 43.4583 80.6895 43.4434 80.6895C42.8773 80.1611 42.4283 79.9847 42.0681 79.8436L41.9627 79.8024C40.745 79.395 39.5249 79.3253 38.3845 79.3102C37.5329 79.3127 36.7934 79.3732 36.1029 79.5C35.4106 79.6747 34.3358 80.256 33.7581 80.5677L33.5921 80.6576C33.2551 80.8382 32.6916 80.8953 32.5148 80.902L32.3903 80.9028C32.1554 80.9037 32.0325 80.9087 31.7595 80.7743C31.5968 80.6819 31.1926 79.8772 30.805 78.1149L30.1567 78.2619C30.4356 79.5286 30.8905 81.0977 31.4706 81.38C31.83 81.5547 32.0566 81.5748 32.2898 81.5748C32.3264 81.5748 32.362 81.5748 32.3994 81.5748L32.5264 81.5731C32.5604 81.5731 33.3605 81.5421 33.9034 81.2506L34.0727 81.1599C34.5856 80.8827 35.653 80.3048 36.244 80.1561C36.8748 80.041 37.5761 79.9839 38.3829 79.9814C39.6345 79.999 40.6878 80.0821 41.7377 80.4333L41.8299 80.4694C42.1693 80.6021 42.5204 80.7416 42.9935 81.1834L43.0798 81.2447C43.1678 81.2976 43.2923 81.3531 43.411 81.3934C43.7189 81.5085 44.1124 81.5757 44.4643 81.5757C44.8112 81.5757 45.1789 81.516 45.4835 81.3984L45.2478 80.7701C45.0212 80.8558 44.7573 80.902 44.4792 80.902Z" fill="black" stroke="black"/>
<path d="M48.6691 40.7475C48.6691 40.3569 48.8053 39.9369 48.9937 39.3564C49.4244 38.0317 50.1432 35.8158 50.1432 30.9841C50.1432 24.4397 44.4112 19.1561 43.2758 18.1733V16.3135H44.4843V15.3055H43.9863V9.33063C43.9863 8.42763 43.26 7.69263 42.3686 7.69263H34.6322C33.7399 7.69263 33.0137 8.42763 33.0137 9.33063V15.3047H32.5157V16.3127H33.7258V18.1725C32.5904 19.1553 26.8584 24.4389 26.8584 30.9833C26.8584 35.8141 27.5763 38.0309 28.0055 39.3556C28.1939 39.936 28.3292 40.3552 28.3292 40.7466C28.3292 41.238 28.125 41.8302 27.866 42.5795C27.4411 43.8101 26.8584 45.496 26.8584 47.8623V73.8418C26.8584 76.3131 27.8361 82.6945 30.2548 83.8151C32.4725 84.8449 34.9492 84.0806 35.8838 83.1339C36.4988 82.5098 40.614 82.6425 41.1178 83.1339C41.7353 83.7597 43.0285 84.3057 44.4751 84.3057C45.2147 84.3057 45.9957 84.1629 46.746 83.8151C49.1646 82.6945 50.1424 76.3131 50.1424 73.8418V47.8631C50.1424 45.4968 49.5597 43.8109 49.1339 42.5795C48.8741 41.8311 48.6691 41.2389 48.6691 40.7475ZM34.6313 8.70063H42.3678C42.7114 8.70063 42.9903 8.98287 42.9903 9.33063V13.2702H34.0088V9.33063C34.0088 8.98371 34.2877 8.70063 34.6313 8.70063ZM34.0088 13.9422H42.9903V15.3055H34.0088V13.9422ZM49.1464 73.8426C49.1464 76.891 47.9371 82.1544 46.3294 82.8987C44.4876 83.7538 42.445 83.0549 41.82 82.4215C40.9435 81.537 36.2241 81.3648 35.1783 82.4215C34.5542 83.0532 32.5132 83.7538 30.6689 82.8978C29.062 82.1527 27.8536 76.891 27.8536 73.8409V47.8631C27.8536 45.6673 28.3814 44.1402 28.8047 42.913C29.0828 42.1066 29.3235 41.4102 29.3235 40.7475C29.3235 40.1956 29.1583 39.6865 28.95 39.0423C28.5134 37.6932 27.8527 35.6545 27.8527 30.9841C27.8527 24.3607 34.4687 18.8554 34.5351 18.8008C34.6521 18.705 34.7202 18.5605 34.7202 18.4093V16.3135H42.2773V18.4093C42.2773 18.5614 42.3454 18.705 42.4632 18.8008C42.5296 18.8554 49.1456 24.3616 49.1456 30.9841C49.1456 35.6545 48.484 37.6932 48.0466 39.0423C47.8375 39.6865 47.6723 40.1956 47.6723 40.7475C47.6723 41.4102 47.9138 42.1066 48.1919 42.913C48.6177 44.1402 49.1447 45.6673 49.1447 47.8631V73.8435H49.1464V73.8426Z" fill="black" stroke="black"/>
<path d="M45.5509 41.7765H31.4475V42.4485H45.5509V41.7765Z" fill="black" stroke="black"/>
<path d="M55.5 34.6666V31.1666H57.8333V34.6666H61.3333V37H57.8333V40.5H55.5V37H52V34.6666H55.5ZM59 41.6666V38.1666H62.5V34.6666H70.6667L72.8017 37H76.5C77.7833 37 78.8333 38.05 78.8333 39.3333V53.3333C78.8333 54.6166 77.7833 55.6666 76.5 55.6666H57.8333C56.55 55.6666 55.5 54.6166 55.5 53.3333V41.6666H59ZM67.1667 52.1666C70.3867 52.1666 73 49.5533 73 46.3333C73 43.1133 70.3867 40.5 67.1667 40.5C63.9467 40.5 61.3333 43.1133 61.3333 46.3333C61.3333 49.5533 63.9467 52.1666 67.1667 52.1666ZM63.4333 46.3333C63.4333 48.3983 65.1017 50.0666 67.1667 50.0666C69.2317 50.0666 70.9 48.3983 70.9 46.3333C70.9 44.2683 69.2317 42.6 67.1667 42.6C65.1017 42.6 63.4333 44.2683 63.4333 46.3333Z" fill="black"/>
</svg>
