<svg width="26" height="20" viewBox="0 0 26 20" fill="none" xmlns="http://www.w3.org/2000/svg">
<path d="M13.1602 13.9434C14.0035 14.7866 14.0035 16.2321 13.1602 17.0754L11.4136 18.822C10.5704 19.6653 9.12484 19.6653 8.28162 18.822L0.632415 11.1126C-0.210805 10.2694 -0.210805 8.82386 0.632415 7.98065L2.37908 6.23398C3.2223 5.39076 4.66782 5.39076 5.51104 6.23398L13.1602 13.9434Z" fill="#00B2E2"/>
<path d="M19.8459 0.632414C20.6891 -0.210805 22.1346 -0.210805 22.9778 0.632414L24.7245 2.37908C25.5677 3.2223 25.5677 4.66782 24.7245 5.51104L11.4739 18.7014C10.6307 19.5446 9.18519 19.5446 8.34197 18.7014L6.5953 16.9547C5.75209 16.1115 5.75209 14.666 6.5953 13.8228L19.8459 0.632414Z" fill="#00B2E2"/>
</svg>
