<svg width="26" height="20" viewBox="0 0 26 20" fill="none" xmlns="http://www.w3.org/2000/svg">
<path d="M13.1602 13.9432C14.0035 14.7864 14.0035 16.2319 13.1602 17.0751L11.4136 18.8218C10.5704 19.665 9.12484 19.665 8.28162 18.8218L0.632415 11.1124C-0.210805 10.2691 -0.210805 8.82362 0.632415 7.9804L2.37908 6.23373C3.2223 5.39051 4.66782 5.39051 5.51104 6.23373L13.1602 13.9432Z" fill="#E91D76"/>
<path d="M19.8459 0.632414C20.6891 -0.210805 22.1346 -0.210805 22.9778 0.632414L24.7245 2.37908C25.5677 3.2223 25.5677 4.66782 24.7245 5.51104L11.4739 18.7014C10.6307 19.5446 9.18519 19.5446 8.34197 18.7014L6.5953 16.9547C5.75209 16.1115 5.75209 14.666 6.5953 13.8228L19.8459 0.632414Z" fill="#E91D76"/>
</svg>
