<svg width="22" height="22" viewBox="0 0 22 22" fill="none" xmlns="http://www.w3.org/2000/svg">
<g clip-path="url(#clip0)">
<path d="M11.0006 0.0458984C4.92545 0.0458984 0.000488281 4.97086 0.000488281 11.046C0.000488281 16.4946 3.96623 21.007 9.16596 21.8808V13.3409H6.51243V10.2677H9.16596V8.00165C9.16596 5.37239 10.7718 3.9396 13.1177 3.9396C14.2412 3.9396 15.2067 4.02332 15.487 4.06019V6.80847L13.86 6.80925C12.5845 6.80925 12.3386 7.41523 12.3386 8.30477V10.2661H15.382L14.9851 13.3393H12.3386V21.9543C17.7811 21.2919 22.0005 16.6646 22.0005 11.0428C22.0005 4.97086 17.0755 0.0458984 11.0006 0.0458984Z" fill="white"/>
</g>
<defs>
<clipPath id="clip0">
<rect width="22" height="22" fill="white"/>
</clipPath>
</defs>
</svg>
