<svg width="94" height="94" viewBox="0 0 94 94" fill="none" xmlns="http://www.w3.org/2000/svg">
<circle cx="47" cy="47" r="46" stroke="black" stroke-width="2"/>
<rect x="25" y="55" width="44" height="15" fill="#E91D76"/>
<path d="M31.1429 33.2308H33.4286C34.0571 33.2308 34.5714 32.7288 34.5714 32.1154C34.5714 31.5019 34.0571 31 33.4286 31H31.1429C30.5143 31 30 31.5019 30 32.1154C30 32.7288 30.5143 33.2308 31.1429 33.2308ZM33.4286 37.6923H31.1429C30.5143 37.6923 30 38.1942 30 38.8077C30 39.4212 30.5143 39.9231 31.1429 39.9231H33.4286C34.0571 39.9231 34.5714 39.4212 34.5714 38.8077C34.5714 38.1942 34.0571 37.6923 33.4286 37.6923ZM33.4286 44.3846H31.1429C30.5143 44.3846 30 44.8865 30 45.5C30 46.1135 30.5143 46.6154 31.1429 46.6154H33.4286C34.0571 46.6154 34.5714 46.1135 34.5714 45.5C34.5714 44.8865 34.0571 44.3846 33.4286 44.3846ZM33.4286 51.0769H31.1429C30.5143 51.0769 30 51.5788 30 52.1923C30 52.8058 30.5143 53.3077 31.1429 53.3077H33.4286C34.0571 53.3077 34.5714 52.8058 34.5714 52.1923C34.5714 51.5788 34.0571 51.0769 33.4286 51.0769ZM33.4286 57.7692H31.1429C30.5143 57.7692 30 58.2712 30 58.8846C30 59.4981 30.5143 60 31.1429 60H33.4286C34.0571 60 34.5714 59.4981 34.5714 58.8846C34.5714 58.2712 34.0571 57.7692 33.4286 57.7692ZM40.2857 33.2308H58.5714C59.2 33.2308 59.7143 32.7288 59.7143 32.1154C59.7143 31.5019 59.2 31 58.5714 31H40.2857C39.6571 31 39.1429 31.5019 39.1429 32.1154C39.1429 32.7288 39.6571 33.2308 40.2857 33.2308ZM40.2857 39.9231H56.2857C56.9143 39.9231 57.4286 39.4212 57.4286 38.8077C57.4286 38.1942 56.9143 37.6923 56.2857 37.6923H40.2857C39.6571 37.6923 39.1429 38.1942 39.1429 38.8077C39.1429 39.4212 39.6571 39.9231 40.2857 39.9231ZM39.1429 45.5C39.1429 46.1135 39.6571 46.6154 40.2857 46.6154H60.8571C61.4857 46.6154 62 46.1135 62 45.5C62 44.8865 61.4857 44.3846 60.8571 44.3846H40.2857C39.6571 44.3846 39.1429 44.8865 39.1429 45.5ZM40.2857 53.3077H58.5714C59.2 53.3077 59.7143 52.8058 59.7143 52.1923C59.7143 51.5788 59.2 51.0769 58.5714 51.0769H40.2857C39.6571 51.0769 39.1429 51.5788 39.1429 52.1923C39.1429 52.8058 39.6571 53.3077 40.2857 53.3077ZM40.2857 60H51.7143C52.3429 60 52.8571 59.4981 52.8571 58.8846C52.8571 58.2712 52.3429 57.7692 51.7143 57.7692H40.2857C39.6571 57.7692 39.1429 58.2712 39.1429 58.8846C39.1429 59.4981 39.6571 60 40.2857 60Z" fill="black"/>
<path d="M60 24H66C67.1046 24 68 24.8954 68 26V68C68 69.1046 67.1046 70 66 70H26C24.8954 70 24 69.1046 24 68V26C24 24.8954 24.8954 24 26 24H53.5" stroke="black" stroke-width="2" stroke-linecap="round" stroke-linejoin="round"/>
</svg>
