<svg width="23" height="23" viewBox="0 0 23 23" fill="none" xmlns="http://www.w3.org/2000/svg">
<g clip-path="url(#clip0)">
<path d="M9.29932 11.5C9.29932 12.7157 10.2848 13.7012 11.5005 13.7012C12.7162 13.7012 13.7017 12.7157 13.7017 11.5C13.7017 10.2843 12.7162 9.29883 11.5005 9.29883C10.2848 9.29883 9.29932 10.2843 9.29932 11.5Z" fill="white"/>
<path d="M6.35275 7.60552C6.45856 7.31879 6.62737 7.05926 6.84672 6.84624C7.05974 6.62689 7.3191 6.45808 7.606 6.35227C7.83868 6.2619 8.18823 6.15434 8.83205 6.12503C9.52852 6.09327 9.73733 6.08643 11.5005 6.08643C13.2639 6.08643 13.4727 6.09309 14.169 6.12486C14.8128 6.15433 15.1625 6.2619 15.395 6.35227C15.6819 6.45808 15.9415 6.62689 16.1543 6.84624C16.3737 7.05926 16.5425 7.31862 16.6485 7.60552C16.7388 7.8382 16.8464 8.18793 16.8757 8.83175C16.9075 9.52804 16.9143 9.73685 16.9143 11.5002C16.9143 13.2634 16.9075 13.4722 16.8757 14.1687C16.8464 14.8125 16.7388 15.162 16.6485 15.3947C16.5425 15.6816 16.3738 15.941 16.1545 16.154C15.9415 16.3734 15.6821 16.5422 15.3952 16.648C15.1625 16.7385 14.8128 16.8461 14.169 16.8754C13.4727 16.9072 13.2641 16.9138 11.5007 16.9138C9.73716 16.9138 9.52834 16.9072 8.83223 16.8754C8.18841 16.8461 7.83868 16.7385 7.606 16.648C7.03009 16.4258 6.5749 15.9706 6.35275 15.3947C6.26238 15.162 6.15481 14.8125 6.12533 14.1687C6.09357 13.4722 6.08691 13.2634 6.08691 11.5002C6.08691 9.73685 6.09357 9.52804 6.12533 8.83175C6.15464 8.18793 6.26221 7.8382 6.35275 7.60552ZM11.5005 14.8909C13.3734 14.8909 14.8916 13.3729 14.8916 11.5C14.8916 9.62718 13.3734 8.10914 11.5005 8.10914C9.62784 8.10914 8.10962 9.62718 8.10962 11.5C8.10962 13.3729 9.62784 14.8909 11.5005 14.8909ZM7.97555 8.76752C8.41319 8.76752 8.768 8.41271 8.768 7.97507C8.768 7.53744 8.41319 7.18262 7.97555 7.18262C7.53792 7.18262 7.1831 7.53744 7.1831 7.97507C7.18328 8.41271 7.53792 8.76752 7.97555 8.76752Z" fill="white"/>
<path d="M11.5 0C17.8503 0 23 5.1497 23 11.5C23 17.8503 17.8503 23 11.5 23C5.1497 23 0 17.8503 0 11.5C0 5.1497 5.1497 0 11.5 0ZM4.93632 14.2225C4.96825 14.9255 5.08003 15.4054 5.24323 15.8255C5.58628 16.7125 6.28748 17.4137 7.17451 17.7568C7.59443 17.92 8.07453 18.0316 8.77731 18.0637C9.4815 18.0958 9.70646 18.1035 11.4998 18.1035C13.2934 18.1035 13.5182 18.0958 14.2225 18.0637C14.9253 18.0316 15.4054 17.92 15.8253 17.7568C16.2661 17.591 16.6651 17.3311 16.995 16.995C17.3309 16.6653 17.5908 16.2661 17.7566 15.8255C17.9198 15.4056 18.0316 14.9255 18.0635 14.2227C18.096 13.5183 18.1035 13.2934 18.1035 11.5C18.1035 9.70663 18.096 9.48167 18.0637 8.77749C18.0317 8.07453 17.9201 7.5946 17.757 7.17451C17.5911 6.73389 17.3311 6.33469 16.995 6.00497C16.6653 5.66893 16.2661 5.40905 15.8255 5.24323C15.4054 5.08003 14.9255 4.96843 14.2225 4.93632C13.5183 4.90421 13.2934 4.89648 11.5 4.89648C9.70663 4.89648 9.48167 4.90421 8.77749 4.93649C8.07453 4.96843 7.5946 5.08003 7.17451 5.24305C6.73389 5.40887 6.33469 5.66893 6.00479 6.00497C5.66893 6.33486 5.40887 6.73389 5.24323 7.17451C5.07986 7.5946 4.96825 8.07453 4.93614 8.77749C4.90403 9.48167 4.89648 9.70663 4.89648 11.5C4.89648 13.2934 4.90403 13.5183 4.93632 14.2225Z" fill="white"/>
</g>
<defs>
<clipPath id="clip0">
<rect width="23" height="23" fill="white" transform="matrix(-1 0 0 1 23 0)"/>
</clipPath>
</defs>
</svg>
