<svg width="59" height="51" viewBox="0 0 59 51" fill="none" xmlns="http://www.w3.org/2000/svg">
<g clip-path="url(#clip0)">
<path d="M49.8723 11.6315C49.8723 11.6315 50.4215 4.34876 54.4466 2.70495C54.4466 2.70495 56.1985 2.02869 57.3386 3.17659C58.5586 4.40425 57.7974 6.29083 56.414 6.77981C55.0306 7.2688 52.0552 8.44791 49.8723 11.6315Z" fill="white"/>
<path opacity="0.64" d="M53.8661 4.41816C53.9843 3.42979 54.9333 2.73272 55.9865 2.86451C57.0397 2.99629 57.7974 3.90143 57.6792 4.8898C57.561 5.87818 56.6121 6.57524 55.5589 6.44345C54.5057 6.31514 53.748 5.40653 53.8661 4.41816Z" fill="white"/>
<path d="M49.8723 11.6316C49.8723 11.6316 50.4215 4.34887 54.4466 2.70505C54.4466 2.70505 56.2228 2.00799 57.3386 3.17669C58.6316 4.53267 57.7661 6.09326 56.2263 6.86315C55.1314 7.40762 51.8536 8.4168 49.8723 11.6316Z" fill="white"/>
<path d="M55.7328 28.7738C55.0689 28.6871 54.5614 28.5726 54.5614 28.5726C53.9392 28.479 52.6705 27.9692 51.6382 27.397C52.0379 26.8976 52.6149 26.2734 53.4179 25.5971L53.6507 25.4029C53.8141 25.2642 53.9392 25.0908 54.0122 24.8896L54.12 24.6053C54.4085 23.8388 55.0967 21.9557 55.2427 21.002C55.4234 19.8507 55.0202 19.0981 54.6483 18.6646C54.1617 18.0959 53.4491 17.7699 52.6914 17.7699C52.2743 17.7699 51.9058 17.867 51.5965 17.9953C51.5965 17.6069 51.5165 17.2254 51.3532 16.8752C51.023 16.1608 50.3834 15.644 49.6083 15.4498C49.3997 15.3978 49.1807 15.3701 48.9548 15.3701C48.5238 15.3701 48.0684 15.4706 47.6374 15.6128C47.6061 14.9886 47.5888 14.1979 47.6479 13.4765L47.6513 13.4488C47.6513 13.428 47.6548 13.4072 47.6548 13.3864V13.3621C47.6583 13.3135 47.8599 8.43064 49.6743 3.70033C49.8238 3.32925 50.1018 2.39637 49.6083 1.42187C49.2537 0.71787 48.6003 0.218482 47.8182 0.0520196C47.6409 0.0208078 47.4497 0 47.2551 0C46.1567 0 44.8915 0.686659 44.2345 1.09588C43.3655 1.64035 42.1142 2.60098 41.0888 4.09914L40.9741 4.26561C40.8942 4.38352 40.8316 4.5153 40.7968 4.65749L40.7482 4.85516C40.7308 4.92452 40.6161 5.37883 40.4562 6.10363C39.5351 6.1071 38.5827 6.36026 37.6199 6.85271C36.8413 7.25153 36.1044 7.88964 35.4474 8.72542C34.7662 8.23643 33.925 7.89311 32.9865 7.73011C32.7188 7.68156 32.4338 7.66075 32.1349 7.66075C31.4362 7.66075 29.6079 7.81334 27.7205 9.22481C27.2825 9.55426 26.8724 9.92534 26.4935 10.338C25.4299 9.14504 23.8622 8.43064 21.9192 8.28845C21.7628 8.27805 21.5994 8.27111 21.4361 8.27111C19.2532 8.27111 16.6358 9.23174 14.6094 10.7785C14.1158 11.1495 13.4519 11.7183 13.073 12.3286C12.8158 12.7448 12.5725 13.2095 12.4057 13.6014C12.218 14.0384 11.7244 15.2036 12.3779 16.3723C12.5864 16.7468 12.8853 17.0555 13.2399 17.274C12.0059 21.7581 12.5621 26.0306 12.5864 26.2283C12.5864 26.2352 12.5899 26.2456 12.5899 26.2491C12.6872 26.9253 12.9827 27.5253 13.4519 28.0212C13.1356 28.2189 12.8367 28.427 12.5516 28.6455C12.0581 29.0165 11.3942 29.5853 11.0153 30.1956C10.7581 30.6118 10.5148 31.0765 10.3444 31.4684C10.1567 31.9053 9.66317 33.0706 10.3166 34.2393C10.5252 34.6138 10.8241 34.9225 11.1787 35.141C9.94472 39.6251 10.5009 43.8976 10.5252 44.0953C10.5252 44.1022 10.5287 44.1126 10.5287 44.1161C10.8867 46.5957 13.6709 47.4765 15.9441 47.4765C16.6219 47.4765 17.1433 47.3794 17.5848 47.1679C18.1757 46.887 18.6345 46.4466 18.916 45.9021C20.5706 47.4349 22.385 48.2395 24.2307 48.2395C25.8539 48.2395 27.4181 47.6361 28.8919 46.4361C28.8953 46.4327 28.9023 46.4257 28.9058 46.4257C29.229 46.1552 30.8662 44.7056 31.3354 42.5416C32.8718 41.6538 34.1857 40.1938 35.0825 38.4043C35.5726 38.7581 36.6779 39.41 38.2003 39.41C39.4551 39.41 40.6404 38.9869 41.7353 38.1512C41.8848 38.4182 42.0516 38.6644 42.2289 38.8864C42.7538 39.5522 43.5706 39.9476 44.4187 39.9476C44.9784 39.9476 46.0559 39.7638 46.9631 38.5465C47.4428 37.9015 47.9885 36.9616 48.3813 35.9871C49.212 36.5698 50.0949 37.0241 51.0195 37.3501L51.0542 37.3605C51.0786 37.3709 51.1029 37.3778 51.1307 37.3847L51.162 37.3951C51.4644 37.4818 51.7703 37.5235 52.0796 37.5235C54.3251 37.5235 55.4547 35.4808 56.0074 33.7711C56.4071 32.5296 56.574 31.3193 56.5809 31.2707L56.7373 30.1436C56.8312 29.4674 56.6087 28.8882 55.7328 28.7738ZM54.8221 33.3862C54.2034 35.304 53.2823 36.2785 52.0796 36.2785C51.8885 36.2785 51.6938 36.2507 51.5061 36.1952L51.4714 36.1848L51.4366 36.1744C49.796 35.5953 48.5342 34.6416 47.5749 33.6844C47.5922 33.8856 47.6061 34.0035 47.6061 34.0104L47.627 34.2011L47.5853 34.3884C47.3246 35.5849 46.5634 36.9963 45.9655 37.8009C45.4128 38.543 44.8219 38.6991 44.4222 38.6991C43.8661 38.6991 43.4351 38.4009 43.2057 38.1061C42.7434 37.5339 42.427 36.7813 42.2081 35.9733C42.0725 36.1293 41.9265 36.2889 41.7771 36.4449C40.6752 37.5824 39.4725 38.1616 38.2038 38.1616C36.737 38.1616 35.7672 37.3605 35.6629 37.2703L35.6351 37.246L35.6108 37.2217C35.1867 36.8507 34.9156 36.5247 34.6654 36.0808C33.8937 38.706 32.187 40.818 30.178 41.7336C30.1884 41.9 30.1745 42.0734 30.1293 42.2468C29.7469 44.0606 28.2801 45.3229 28.1133 45.4616L28.1098 45.4651L28.1063 45.4686C26.8689 46.4743 25.5689 46.9841 24.2376 46.9841C22.3572 46.9841 20.4732 45.9333 18.7874 43.9496C18.2973 43.3739 17.8941 42.7982 17.5848 42.3197C17.6612 42.9231 17.7655 43.5577 17.908 44.2271C17.9984 44.5149 17.9984 44.8374 17.9011 45.1253C17.8072 45.4027 17.5848 45.7842 17.0564 46.0339C16.8861 46.1136 16.5872 46.2211 15.9511 46.2211C14.519 46.2211 12.0303 45.7391 11.7661 43.9253V43.9184V43.9115C11.7348 43.6826 11.1161 38.869 12.7706 34.2324C12.6837 34.2497 12.5968 34.2566 12.5134 34.2566C12.0546 34.2566 11.634 34.0104 11.4115 33.6151C11.0987 33.0532 11.2795 32.4498 11.4984 31.9366C11.6444 31.5967 11.8565 31.1944 12.0789 30.8303C12.3813 30.3448 13.0348 29.8246 13.3059 29.62C14.1297 28.9923 15.0786 28.4686 16.0449 28.0802C14.9744 27.7715 13.9837 27.1612 13.8238 26.0549V26.0479V26.041C13.7925 25.8121 13.1738 20.9986 14.8284 16.3619C14.7415 16.3792 14.6546 16.3862 14.5711 16.3862C14.1123 16.3862 13.6917 16.1399 13.4693 15.7446C13.1565 15.1828 13.3372 14.5794 13.5562 14.0661C13.7022 13.7262 13.9142 13.3239 14.1367 12.9598C14.4356 12.4743 15.0925 11.9541 15.3637 11.7495C17.1607 10.3796 19.5452 9.49531 21.4395 9.49531C21.5751 9.49531 21.7072 9.49878 21.8323 9.50918C24.116 9.67564 25.7045 10.7334 26.3962 12.5159C26.9662 11.5796 27.6614 10.8027 28.4713 10.1958C30.0598 9.00632 31.5648 8.87801 32.1384 8.87801C32.3643 8.87801 32.5798 8.89535 32.7745 8.93003C33.6504 9.08262 34.4081 9.42248 34.9712 9.908C35.2354 10.1369 35.4579 10.4004 35.6282 10.6848C36.3546 9.38087 37.2514 8.41677 38.1934 7.93472C38.9859 7.52897 39.7541 7.32436 40.484 7.32436C40.8386 7.32436 41.1583 7.37291 41.4503 7.4492C41.7145 6.08976 41.9439 5.19155 41.9578 5.143L42.0099 4.94533L42.1246 4.77887C43.0284 3.45757 44.1337 2.60792 44.9019 2.12933C45.2425 1.91779 46.4209 1.22073 47.262 1.22073C47.3663 1.22073 47.4671 1.23113 47.5644 1.25194C47.9781 1.34211 48.3187 1.6022 48.5029 1.96634C48.7706 2.49694 48.6072 3.02407 48.5203 3.23215C46.612 8.19829 46.4139 13.2546 46.4139 13.3066V13.3344L46.4104 13.3621C46.3479 14.1355 46.3618 14.9643 46.3965 15.6232C46.4348 16.355 46.4939 16.9723 46.5634 17.4647C47.4706 16.9341 48.3917 16.5977 48.9617 16.5977C49.0869 16.5977 49.2051 16.6116 49.3163 16.6393C49.7264 16.7399 50.0601 17.0104 50.2339 17.3815C50.4807 17.9121 50.3104 18.4288 50.2165 18.6369C49.862 19.5108 49.5492 20.3778 49.2815 21.2067C50.008 20.4853 50.8248 19.8229 51.7147 19.327C51.9267 19.1814 52.2812 18.9941 52.7018 18.9941C53.0946 18.9941 53.463 19.1605 53.7133 19.4519C54.0053 19.7917 54.1061 20.2391 54.0227 20.7905C53.8836 21.6783 53.1155 23.7417 52.9625 24.1475L52.8548 24.4284L52.6219 24.6226C51.1759 25.8364 50.3208 26.9774 49.8933 27.7195C51.0264 28.5934 53.0911 29.561 54.3807 29.776C54.3807 29.776 54.8986 29.8905 55.5069 29.9459C55.3435 31.0973 55.1871 32.2591 54.8221 33.3862Z" fill="white"/>
<path d="M28.4851 41.7786C26.9349 42.6144 22.3189 42.2849 19.6459 38.1199C19.6459 38.1199 24.1333 35.0299 23.4764 31.5862C23.1079 29.6476 21.7419 28.6974 19.6876 28.5483C18.186 28.4373 15.8259 29.1656 14.0045 30.5562C14.0045 30.5562 13.2815 31.0972 13.0626 31.4544C12.5794 32.2347 12.0372 33.4347 12.7219 33.0428C12.7219 33.0428 14.4911 31.503 16.5558 31.1701C17.4735 31.021 18.0783 31.1597 18.6066 31.4544C19.6737 32.0509 19.7954 33.4381 19.347 34.5201C18.9438 35.4946 18.1548 36.3998 17.463 36.92C17.463 36.92 17.1467 37.1835 16.9868 37.3986C16.8235 37.6205 16.7713 37.943 16.9 38.3072C17.0703 38.7927 17.3622 39.6146 17.9114 40.5926C17.9114 40.5926 22.0234 48.94 27.3728 44.5877C27.3728 44.5877 28.7076 43.4779 29.003 41.9832C29.003 41.9763 29.1907 41.3971 28.4851 41.7786Z" fill="white"/>
<path d="M14.7797 15.1757C14.7797 15.1757 16.5489 13.636 18.6136 13.303C19.5312 13.1539 20.136 13.2926 20.6644 13.5874C21.7315 14.1839 21.8531 15.5711 21.4047 16.6531C21.0015 17.6276 20.2125 18.5327 19.5208 19.0529C19.5208 19.0529 19.2045 19.3165 19.0446 19.5315C18.8812 19.7535 18.8291 20.076 18.9577 20.4401C19.128 20.9256 19.42 21.7475 19.9692 22.7255C19.9692 22.7255 24.0812 31.0729 29.4306 26.7206C29.4306 26.7206 30.7654 25.6109 31.0608 24.1162C31.0608 24.1162 31.245 23.537 30.5394 23.9185C28.9892 24.7543 24.3732 24.4248 21.7002 20.2598C21.7002 20.2598 26.1876 17.1698 25.5306 13.7261C25.1622 11.7875 23.7962 10.8373 21.7419 10.6882C20.2403 10.5772 17.8802 11.3055 16.0588 12.6961C16.0588 12.6961 15.3358 13.2371 15.1168 13.5943C14.6372 14.3712 14.0949 15.5676 14.7797 15.1757Z" fill="white"/>
<path d="M17.3761 15.0682C16.8686 14.7075 16.6218 15.1237 16.6218 15.1237C14.1713 19.9581 14.9742 25.9022 14.9742 25.9022C15.1515 27.1194 18.1512 27.3552 18.6205 27.1298C18.9924 26.953 18.8533 26.6825 18.8533 26.6825C17.5534 20.5754 18.9924 17.0172 18.9924 17.0172C18.9298 16.3756 17.8836 15.4324 17.3761 15.0682Z" fill="white"/>
<path d="M16.9279 34.8843C16.8723 34.2393 15.8225 33.2925 15.315 32.9319C14.8076 32.5712 14.5608 32.9874 14.5608 32.9874C12.1103 37.8217 12.9132 43.7658 12.9132 43.7658C13.0905 44.9831 16.0902 45.2189 16.5594 44.9935C16.9313 44.8166 16.7923 44.5461 16.7923 44.5461C15.4923 38.4425 16.9279 34.8843 16.9279 34.8843Z" fill="white"/>
<path d="M29.9972 27.7645C27.3033 27.7125 24.6582 30.6533 24.0846 34.3293C23.5111 38.0054 25.2317 41.0295 27.922 41.0815C30.6159 41.1335 33.261 38.1927 33.8346 34.5166C34.4081 30.8371 32.691 27.8165 29.9972 27.7645ZM28.9752 38.7614C28.6276 38.9764 28.3739 38.4146 28.3739 38.4146C27.9255 37.5407 27.8421 36.0911 27.8351 35.1235C27.8212 32.9907 28.4017 31.8012 28.5616 31.3261C28.7528 30.7504 27.9881 30.2163 27.9881 30.2163C29.2498 30.2614 30.4004 31.1423 30.4351 33.6531C30.4838 36.854 29.3263 38.5464 28.9752 38.7614Z" fill="white"/>
<path d="M48.4926 28.0108C48.4926 28.0108 49.08 26.1069 51.8712 23.7625C51.8712 23.7625 52.7436 21.4494 52.8688 20.6344C52.9939 19.8194 52.3265 20.3258 52.3265 20.3258C49.6987 21.765 47.634 24.9729 46.772 26.5855V26.5889C46.7581 26.6167 46.7442 26.6444 46.7303 26.6687L46.9006 25.7289C47.2725 23.9012 47.9573 21.1269 49.1461 18.2034C49.1461 18.2034 49.3199 17.8531 49.0314 17.7803C48.642 17.6832 46.2819 18.5294 44.7004 20.6934C44.7004 20.6934 43.8244 23.1279 43.4004 26.7658L43.2579 27.8582L43.1188 29.2003C42.6983 30.7505 41.6103 32.4567 40.6961 32.4741C40.4806 32.4775 40.2755 32.4255 40.0879 32.3284C39.9419 32.2799 39.8098 32.1724 39.6916 32.0232C39.1146 31.4198 38.7879 30.2754 38.9026 28.9541C39.0729 26.9877 40.1539 25.3751 41.3148 25.3509C41.6033 25.3439 41.871 25.441 42.1039 25.6144C42.1491 25.6456 42.2325 25.7046 42.3368 25.6664C42.4549 25.6075 42.6148 25.3613 42.6704 24.8827C42.6774 24.8307 42.6983 24.7405 42.6183 24.6157C42.3333 24.1613 40.9568 22.4724 38.5654 23.6828C37.0117 24.47 35.2633 26.7034 34.728 29.9043C34.3387 32.2244 34.6689 34.9294 36.4242 36.3998C36.4242 36.3998 38.4959 38.1858 40.9499 35.6473C41.8015 34.7664 42.375 33.9063 42.9381 32.5746C42.9902 34.5826 43.3482 36.4484 44.1234 37.3986C44.1234 37.3986 44.471 37.8841 45.041 37.1177C45.6111 36.3513 46.2541 35.0924 46.4592 34.1491C46.4592 34.1491 46.2298 32.162 46.3723 30.3933C47.1335 31.3886 48.7776 34.0173 51.826 35.0889C53.5639 35.5848 54.2035 30.9447 54.2035 30.9447C52.7575 30.7228 49.5319 29.2801 48.4926 28.0108Z" fill="white"/>
<path d="M31.1163 23.0377C33.1462 22.3614 34.6652 20.4263 35.4368 18.6888C35.6732 19.5593 36.0938 20.3223 36.7403 20.8875C36.7403 20.8875 38.3392 22.3129 40.4838 20.5962C41.0782 20.1211 41.7734 19.209 42.1697 18.2449C42.3608 19.1015 42.6354 19.8437 43.0039 20.2945C43.0039 20.2945 43.3515 20.78 43.9215 20.0136C44.4916 19.2472 45.1346 17.9883 45.3397 17.045C45.3397 17.045 45.1103 15.0579 45.2528 13.2892C45.2528 13.2892 45.4301 8.0491 47.4426 2.82286C47.4426 2.82286 47.606 2.46566 47.314 2.40323C46.9212 2.32 44.5889 3.23902 43.0769 5.45158C43.0769 5.45158 42.6563 7.08847 42.2983 9.29756C41.7456 8.70801 40.6159 8.01442 38.7216 8.98545C36.935 9.90099 35.3743 13.2025 35.2109 16.237C34.6965 17.5617 33.7302 19.0772 32.3329 19.4275C31.5612 19.6217 30.0944 19.6078 29.5973 17.5305C29.5973 17.5305 32.524 17.1733 34.2203 14.6764C34.8216 13.7921 34.9363 12.9875 34.9294 12.3702C34.9085 11.0107 33.7893 10.2409 32.5796 10.0917C31.297 9.9322 27.8072 10.6085 26.3126 15.6023C24.8353 20.5407 27.4735 24.2515 31.1163 23.0377ZM39.0831 13.8996C39.2325 12.0615 40.2683 10.5391 41.3911 10.4975C41.6448 10.4871 41.8812 10.5564 42.0932 10.6882C41.9924 11.4616 41.909 12.2696 41.8568 13.0811C41.8603 13.0777 41.8568 13.2164 41.8464 13.6429C41.7943 14.2776 41.7908 15.0613 41.8429 15.8694C41.7526 16.6601 41.4919 17.4057 40.9288 17.4716C40.7202 17.4959 40.5707 17.475 40.39 17.3849C40.2475 17.3398 39.9833 17.1491 39.8686 17.0103C39.3055 16.4589 38.9823 15.1342 39.0831 13.8996ZM30.8938 12.7205C30.8938 12.7205 31.3561 12.3841 31.6446 12.5956C31.7489 12.6719 31.7906 12.8592 31.735 13.1782C31.5473 14.281 30.3759 15.3076 29.4618 15.7723C29.4652 15.7723 29.573 13.6464 30.8938 12.7205Z" fill="white"/>
<path d="M41.857 13.0812C41.8535 13.0881 41.8361 13.4245 41.8257 13.6395C41.8361 13.4522 41.8465 13.265 41.857 13.0812Z" fill="white"/>
<path d="M41.8257 13.6637C41.8187 13.8267 41.8152 13.8995 41.8257 13.6637V13.6637Z" fill="white"/>
<path d="M10.8378 26.7763C10.8378 26.7763 6.72933 20.6657 2.38097 21.2206C2.38097 21.2206 0.510937 21.498 0.0799254 23.0655C-0.378894 24.744 1.23045 26.0237 2.68685 25.7636C4.14673 25.5035 7.33761 25.0665 10.8378 26.7763Z" fill="white"/>
<path opacity="0.64" d="M3.74692 22.4344C3.14906 21.6264 1.97073 21.4877 1.11566 22.1258C0.25711 22.7639 0.0450796 23.9326 0.642935 24.7406C1.24079 25.5486 2.41912 25.6874 3.27419 25.0493C4.12927 24.4112 4.3413 23.2424 3.74692 22.4344Z" fill="white"/>
<path d="M10.9491 22.2019C10.9491 22.2019 11.6374 16.6046 8.83577 14.7527C8.83577 14.7527 7.61225 13.9759 6.57643 14.673C5.46762 15.4186 5.75612 16.9618 6.73285 17.541C7.70958 18.1201 9.77774 19.4622 10.9491 22.2019Z" fill="white"/>
<path opacity="0.64" d="M9.01663 16.1364C9.07572 15.37 8.46396 14.7007 7.64712 14.6417C6.83028 14.5828 6.11772 15.155 6.05863 15.9214C5.99954 16.6879 6.6113 17.3572 7.42814 17.4161C8.24498 17.4785 8.95754 16.9029 9.01663 16.1364Z" fill="white"/>
<path d="M35.9929 40.8943C35.9929 40.8943 39.1629 44.4559 41.9054 43.7242C41.9054 43.7242 43.0838 43.3843 43.2193 42.3404C43.3653 41.2238 42.2217 40.5406 41.3111 40.8354C40.3969 41.1267 38.3878 41.685 35.9929 40.8943Z" fill="white"/>
<path d="M10.9491 22.2019C10.9491 22.2019 11.6374 16.6046 8.83577 14.7527C8.83577 14.7527 7.61225 13.9759 6.57643 14.673C5.46762 15.4186 5.75612 16.9618 6.73285 17.541C7.70958 18.1201 9.77774 19.4622 10.9491 22.2019Z" fill="white"/>
<path d="M10.8378 26.7763C10.8378 26.7763 6.72931 20.6657 2.38095 21.2206C2.38095 21.2206 0.476159 21.4876 0.0799062 23.0655C-0.378913 24.8966 1.15744 25.833 2.89191 25.7428C4.12586 25.6804 7.50096 24.9382 10.8378 26.7763Z" fill="white"/>
<path d="M35.9929 40.8943C35.9929 40.8943 39.1629 44.4559 41.9054 43.7242C41.9054 43.7242 43.0838 43.3843 43.2193 42.3404C43.3653 41.2238 42.2217 40.5406 41.3111 40.8354C40.3969 41.1267 38.3878 41.685 35.9929 40.8943Z" fill="white"/>
<path d="M50.71 13.9031C50.71 13.9031 54.6899 10.2721 57.6826 11.4166C57.6826 11.4166 58.9652 11.9368 58.9965 13.1263C59.0313 14.399 57.6652 15.0302 56.6746 14.5932C55.6875 14.1597 53.4942 13.2962 50.71 13.9031Z" fill="white"/>
<path opacity="0.64" d="M56.5041 12.0443C57.0672 11.5727 57.9293 11.6767 58.4298 12.2801C58.9303 12.8801 58.8747 13.7505 58.3116 14.2187C57.7485 14.6904 56.8865 14.5863 56.386 13.9829C55.8889 13.3864 55.941 12.5159 56.5041 12.0443Z" fill="white"/>
<path d="M50.71 13.9031C50.71 13.9031 54.6899 10.2721 57.6826 11.4166C57.6826 11.4166 58.9896 11.9368 58.9965 13.1263C59.0035 14.5065 57.7521 14.9054 56.5356 14.5412C55.6701 14.2881 53.4003 13.1748 50.71 13.9031Z" fill="white"/>
<path d="M8.90169 36.4449C8.90169 36.4449 3.53489 38.602 3.25682 42.0249C3.25682 42.0249 3.16645 43.5023 4.30654 44.0849C5.52658 44.7091 6.77096 43.6826 6.80572 42.5243C6.84048 41.3695 7.02122 38.8517 8.90169 36.4449Z" fill="white"/>
<path opacity="0.64" d="M4.41079 41.1787C3.69128 41.5047 3.39583 42.3856 3.74689 43.1451C4.09796 43.9046 4.96346 44.2583 5.68297 43.9323C6.40248 43.6063 6.69793 42.7254 6.34687 41.966C5.9958 41.203 5.1303 40.8527 4.41079 41.1787Z" fill="white"/>
<path d="M8.90169 36.4449C8.90169 36.4449 3.53489 38.602 3.25682 42.0249C3.25682 42.0249 3.16645 43.5023 4.30654 44.0849C5.52658 44.7091 6.77096 43.6826 6.80572 42.5243C6.84048 41.3695 7.02122 38.8517 8.90169 36.4449Z" fill="white"/>
<path d="M34.7035 41.5532C34.7035 41.5532 36.4484 47.7609 33.5947 50.3376C33.5947 50.3376 32.3399 51.4231 31.0468 50.8162C29.6599 50.1642 29.7225 48.3678 30.727 47.5493C31.7316 46.724 33.8449 44.8513 34.7035 41.5532Z" fill="white"/>
<path opacity="0.64" d="M33.5598 48.7388C33.7614 49.5954 33.181 50.459 32.2633 50.6636C31.3492 50.8717 30.442 50.3445 30.2438 49.4879C30.0422 48.6313 30.6227 47.7678 31.5403 47.5632C32.4545 47.3586 33.3582 47.8823 33.5598 48.7388Z" fill="white"/>
<path d="M34.7035 41.5532C34.7035 41.5532 36.4484 47.7609 33.5947 50.3376C33.5947 50.3376 32.3399 51.4231 31.0468 50.8162C29.6599 50.1642 29.7225 48.3678 30.727 47.5493C31.7316 46.724 33.8449 44.8513 34.7035 41.5532Z" fill="white"/>
</g>
<defs>
<clipPath id="clip0">
<rect width="59" height="51" fill="white"/>
</clipPath>
</defs>
</svg>
