<svg width="22" height="22" viewBox="0 0 22 22" fill="none" xmlns="http://www.w3.org/2000/svg">
<g clip-path="url(#clip0)">
<path d="M11.0002 0C4.92604 0 0.000244141 4.9258 0.000244141 11C0.000244141 17.0742 4.92604 22 11.0002 22C17.0744 22 22.0002 17.0742 22.0002 11C22.0002 4.9258 17.0744 0 11.0002 0ZM16.0227 8.57663C16.0276 8.68489 16.0299 8.79365 16.0299 8.90292C16.0299 12.2392 13.4904 16.0864 8.84627 16.0866H8.84644H8.84627C7.42041 16.0866 6.09358 15.6687 4.97623 14.9525C5.17378 14.9758 5.37486 14.9874 5.57846 14.9874C6.76144 14.9874 7.8501 14.5839 8.71434 13.9066C7.60907 13.8861 6.67719 13.1562 6.35559 12.1529C6.50951 12.1825 6.66779 12.1986 6.83009 12.1986C7.06055 12.1986 7.28378 12.1675 7.49594 12.1096C6.34065 11.8783 5.47037 10.8573 5.47037 9.63473C5.47037 9.62332 5.47037 9.61308 5.4707 9.60251C5.81093 9.79167 6.2 9.90547 6.61424 9.91823C5.93631 9.46588 5.49068 8.69261 5.49068 7.81662C5.49068 7.35403 5.61572 6.92065 5.83258 6.54753C7.07767 8.07527 8.93842 9.08 11.0368 9.18558C10.9935 9.00061 10.9712 8.80792 10.9712 8.60986C10.9712 7.21606 12.102 6.08528 13.4963 6.08528C14.2226 6.08528 14.8785 6.39227 15.3392 6.88306C15.9145 6.76959 16.4546 6.55945 16.9425 6.27025C16.7537 6.85956 16.3535 7.35403 15.8322 7.66673C16.343 7.60564 16.8297 7.47018 17.2821 7.2691C16.9442 7.7755 16.5157 8.22029 16.0227 8.57663Z" fill="white"/>
</g>
<defs>
<clipPath id="clip0">
<rect width="22" height="22" fill="white"/>
</clipPath>
</defs>
</svg>
