<svg width="22" height="23" viewBox="0 0 22 23" fill="none" xmlns="http://www.w3.org/2000/svg">
<path d="M21.9996 10.9604C22.052 16.8655 17.1709 22.0058 10.9706 22.0013C4.93521 21.9953 0.0316269 17.1909 0.000145567 11.0804C-0.0313357 4.87385 5.04765 -0.0520676 11.14 0.000415508C17.2294 0.0543982 22.0371 5.05979 21.9996 10.9604ZM10.9047 16.1712C12.032 16.1457 12.9914 16.1352 13.9494 16.1007C14.7514 16.0722 15.5549 16.0378 16.3539 15.9643C17.1859 15.8878 17.7526 15.4335 18.003 14.6267C18.0839 14.3643 18.1484 14.0929 18.1798 13.8215C18.3867 12.028 18.3867 10.2331 18.2218 8.4367C18.1888 8.08132 18.1184 7.72443 18.0254 7.37954C17.8081 6.5773 17.2624 6.11695 16.4469 6.01198C15.9012 5.9415 15.3495 5.91451 14.7994 5.89652C12.7636 5.82604 10.7263 5.77956 8.68899 5.86803C7.69508 5.91151 6.69967 5.93551 5.71025 6.01798C4.83777 6.08996 4.24263 6.5638 4.00127 7.42753C3.92481 7.70344 3.85586 7.98685 3.82587 8.27026C3.63249 10.0877 3.64148 11.9081 3.81238 13.7255C3.84536 14.0794 3.9443 14.4318 4.05224 14.7737C4.24413 15.3855 4.68786 15.7529 5.301 15.8953C5.64879 15.9763 6.01008 16.0303 6.36687 16.0438C7.93493 16.0977 9.5045 16.1337 10.9047 16.1712Z" fill="white"/>
<path d="M9.5404 8.92871C10.8071 9.5885 12.0424 10.2303 13.3526 10.9126C12.0484 11.6218 10.8131 12.2936 9.57638 12.9654C9.47294 12.709 9.44445 9.48803 9.5404 8.92871Z" fill="white"/>
</svg>
